solid Object01
  facet normal 0.000000e+00 0.000000e+00 -1.000000e+00
    outer loop
      vertex 0.000000e+00 -3.500000e+01 -4.000000e-01
      vertex -2.700000e+01 -3.500000e+01 -4.000000e-01
      vertex -2.700000e+01 0.000000e+00 -4.000000e-01
    endloop
  endfacet
  facet normal 0.000000e+00 0.000000e+00 -1.000000e+00
    outer loop
      vertex 0.000000e+00 -3.500000e+01 -4.000000e-01
      vertex -2.700000e+01 0.000000e+00 -4.000000e-01
      vertex 0.000000e+00 0.000000e+00 -4.000000e-01
    endloop
  endfacet
  facet normal 0.000000e+00 -1.000000e+00 0.000000e+00
    outer loop
      vertex 0.000000e+00 -3.500000e+01 -4.000000e-01
      vertex 0.000000e+00 -3.500000e+01 0.000000e+00
      vertex -2.000000e+00 -3.500000e+01 0.000000e+00
    endloop
  endfacet
  facet normal 0.000000e+00 -1.000000e+00 0.000000e+00
    outer loop
      vertex 0.000000e+00 -3.500000e+01 -4.000000e-01
      vertex -2.000000e+00 -3.500000e+01 0.000000e+00
      vertex -6.200000e+00 -3.500000e+01 0.000000e+00
    endloop
  endfacet
  facet normal 0.000000e+00 -1.000000e+00 0.000000e+00
    outer loop
      vertex -2.080000e+01 -3.500000e+01 0.000000e+00
      vertex -2.500000e+01 -3.500000e+01 0.000000e+00
      vertex -2.700000e+01 -3.500000e+01 -4.000000e-01
    endloop
  endfacet
  facet normal 0.000000e+00 -1.000000e+00 0.000000e+00
    outer loop
      vertex -2.700000e+01 -3.500000e+01 -4.000000e-01
      vertex -2.500000e+01 -3.500000e+01 0.000000e+00
      vertex -2.700000e+01 -3.500000e+01 0.000000e+00
    endloop
  endfacet
  facet normal -0.000000e+00 -1.000000e+00 0.000000e+00
    outer loop
      vertex -2.700000e+01 -3.500000e+01 -4.000000e-01
      vertex 0.000000e+00 -3.500000e+01 -4.000000e-01
      vertex -1.350000e+01 -3.500000e+01 -2.000000e-01
    endloop
  endfacet
  facet normal 0.000000e+00 -1.000000e+00 0.000000e+00
    outer loop
      vertex -6.200000e+00 -3.500000e+01 0.000000e+00
      vertex -2.080000e+01 -3.500000e+01 0.000000e+00
      vertex -1.350000e+01 -3.500000e+01 -2.000000e-01
    endloop
  endfacet
  facet normal 0.000000e+00 -1.000000e+00 0.000000e+00
    outer loop
      vertex -2.080000e+01 -3.500000e+01 0.000000e+00
      vertex -2.700000e+01 -3.500000e+01 -4.000000e-01
      vertex -1.350000e+01 -3.500000e+01 -2.000000e-01
    endloop
  endfacet
  facet normal 0.000000e+00 -1.000000e+00 0.000000e+00
    outer loop
      vertex 0.000000e+00 -3.500000e+01 -4.000000e-01
      vertex -6.200000e+00 -3.500000e+01 0.000000e+00
      vertex -1.350000e+01 -3.500000e+01 -2.000000e-01
    endloop
  endfacet
  facet normal -1.000000e+00 0.000000e+00 4.768372e-06
    outer loop
      vertex -2.700000e+01 -3.500000e+01 -4.000000e-01
      vertex -2.700000e+01 -3.500000e+01 0.000000e+00
      vertex -2.700000e+01 0.000000e+00 0.000000e+00
    endloop
  endfacet
  facet normal -1.000000e+00 0.000000e+00 4.768372e-06
    outer loop
      vertex -2.700000e+01 0.000000e+00 -4.000000e-01
      vertex -2.700000e+01 -3.500000e+01 -4.000000e-01
      vertex -2.700000e+01 0.000000e+00 0.000000e+00
    endloop
  endfacet
  facet normal 0.000000e+00 1.000000e+00 0.000000e+00
    outer loop
      vertex -2.700000e+01 0.000000e+00 -4.000000e-01
      vertex -2.700000e+01 0.000000e+00 0.000000e+00
      vertex -2.500000e+01 0.000000e+00 0.000000e+00
    endloop
  endfacet
  facet normal 0.000000e+00 1.000000e+00 0.000000e+00
    outer loop
      vertex -2.700000e+01 0.000000e+00 -4.000000e-01
      vertex -2.500000e+01 0.000000e+00 0.000000e+00
      vertex -2.080000e+01 0.000000e+00 0.000000e+00
    endloop
  endfacet
  facet normal 0.000000e+00 1.000000e+00 0.000000e+00
    outer loop
      vertex -6.200000e+00 0.000000e+00 0.000000e+00
      vertex -2.000000e+00 0.000000e+00 0.000000e+00
      vertex 0.000000e+00 0.000000e+00 -4.000000e-01
    endloop
  endfacet
  facet normal 0.000000e+00 1.000000e+00 0.000000e+00
    outer loop
      vertex 0.000000e+00 0.000000e+00 -4.000000e-01
      vertex -2.000000e+00 0.000000e+00 0.000000e+00
      vertex 0.000000e+00 0.000000e+00 0.000000e+00
    endloop
  endfacet
  facet normal -0.000000e+00 1.000000e+00 0.000000e+00
    outer loop
      vertex 0.000000e+00 0.000000e+00 -4.000000e-01
      vertex -2.700000e+01 0.000000e+00 -4.000000e-01
      vertex -1.350000e+01 0.000000e+00 -2.000000e-01
    endloop
  endfacet
  facet normal 0.000000e+00 1.000000e+00 0.000000e+00
    outer loop
      vertex -2.080000e+01 0.000000e+00 0.000000e+00
      vertex -6.200000e+00 0.000000e+00 0.000000e+00
      vertex -1.350000e+01 0.000000e+00 -2.000000e-01
    endloop
  endfacet
  facet normal 0.000000e+00 1.000000e+00 -0.000000e+00
    outer loop
      vertex -6.200000e+00 0.000000e+00 0.000000e+00
      vertex 0.000000e+00 0.000000e+00 -4.000000e-01
      vertex -1.350000e+01 0.000000e+00 -2.000000e-01
    endloop
  endfacet
  facet normal 0.000000e+00 1.000000e+00 0.000000e+00
    outer loop
      vertex -2.700000e+01 0.000000e+00 -4.000000e-01
      vertex -2.080000e+01 0.000000e+00 0.000000e+00
      vertex -1.350000e+01 0.000000e+00 -2.000000e-01
    endloop
  endfacet
  facet normal 1.000000e+00 0.000000e+00 0.000000e+00
    outer loop
      vertex 0.000000e+00 0.000000e+00 -4.000000e-01
      vertex 0.000000e+00 0.000000e+00 0.000000e+00
      vertex 0.000000e+00 -3.500000e+01 0.000000e+00
    endloop
  endfacet
  facet normal 1.000000e+00 0.000000e+00 0.000000e+00
    outer loop
      vertex 0.000000e+00 -3.500000e+01 -4.000000e-01
      vertex 0.000000e+00 0.000000e+00 -4.000000e-01
      vertex 0.000000e+00 -3.500000e+01 0.000000e+00
    endloop
  endfacet
  facet normal -0.000000e+00 -1.000000e+00 0.000000e+00
    outer loop
      vertex -2.000000e+00 -3.500000e+01 0.000000e+00
      vertex 0.000000e+00 -3.500000e+01 0.000000e+00
      vertex 0.000000e+00 -3.500000e+01 2.400000e+00
    endloop
  endfacet
  facet normal 0.000000e+00 -1.000000e+00 -0.000000e+00
    outer loop
      vertex -2.000000e+00 -3.500000e+01 0.000000e+00
      vertex 0.000000e+00 -3.500000e+01 2.400000e+00
      vertex -2.000000e+00 -3.500000e+01 2.400000e+00
    endloop
  endfacet
  facet normal 0.000000e+00 0.000000e+00 1.000000e+00
    outer loop
      vertex -2.000000e+00 0.000000e+00 0.000000e+00
      vertex -6.200000e+00 -3.500000e+01 0.000000e+00
      vertex -2.000000e+00 -3.500000e+01 0.000000e+00
    endloop
  endfacet
  facet normal 0.000000e+00 0.000000e+00 1.000000e+00
    outer loop
      vertex -2.000000e+00 0.000000e+00 0.000000e+00
      vertex -6.200000e+00 0.000000e+00 0.000000e+00
      vertex -6.200000e+00 -3.500000e+01 0.000000e+00
    endloop
  endfacet
  facet normal -0.000000e+00 -1.000000e+00 0.000000e+00
    outer loop
      vertex -2.080000e+01 -3.500000e+01 0.000000e+00
      vertex -6.200000e+00 -3.500000e+01 0.000000e+00
      vertex -6.200000e+00 -3.500000e+01 2.400000e+00
    endloop
  endfacet
  facet normal 0.000000e+00 -1.000000e+00 0.000000e+00
    outer loop
      vertex -2.080000e+01 -3.500000e+01 0.000000e+00
      vertex -6.200000e+00 -3.500000e+01 2.400000e+00
      vertex -2.080000e+01 -3.500000e+01 2.400000e+00
    endloop
  endfacet
  facet normal -0.000000e+00 -1.000000e+00 0.000000e+00
    outer loop
      vertex -2.700000e+01 -3.500000e+01 0.000000e+00
      vertex -2.500000e+01 -3.500000e+01 0.000000e+00
      vertex -2.500000e+01 -3.500000e+01 2.400000e+00
    endloop
  endfacet
  facet normal 0.000000e+00 -1.000000e+00 -0.000000e+00
    outer loop
      vertex -2.700000e+01 -3.500000e+01 0.000000e+00
      vertex -2.500000e+01 -3.500000e+01 2.400000e+00
      vertex -2.700000e+01 -3.500000e+01 2.400000e+00
    endloop
  endfacet
  facet normal 0.000000e+00 0.000000e+00 1.000000e+00
    outer loop
      vertex -2.080000e+01 0.000000e+00 0.000000e+00
      vertex -2.500000e+01 -3.500000e+01 0.000000e+00
      vertex -2.080000e+01 -3.500000e+01 0.000000e+00
    endloop
  endfacet
  facet normal 0.000000e+00 0.000000e+00 1.000000e+00
    outer loop
      vertex -2.080000e+01 0.000000e+00 0.000000e+00
      vertex -2.500000e+01 0.000000e+00 0.000000e+00
      vertex -2.500000e+01 -3.500000e+01 0.000000e+00
    endloop
  endfacet
  facet normal -1.000000e+00 0.000000e+00 0.000000e+00
    outer loop
      vertex -2.700000e+01 0.000000e+00 2.400000e+00
      vertex -2.700000e+01 -3.500000e+01 0.000000e+00
      vertex -2.700000e+01 -3.500000e+01 2.400000e+00
    endloop
  endfacet
  facet normal -1.000000e+00 0.000000e+00 0.000000e+00
    outer loop
      vertex -2.700000e+01 0.000000e+00 0.000000e+00
      vertex -2.700000e+01 -3.500000e+01 0.000000e+00
      vertex -2.700000e+01 0.000000e+00 2.400000e+00
    endloop
  endfacet
  facet normal -0.000000e+00 1.000000e+00 0.000000e+00
    outer loop
      vertex -2.500000e+01 0.000000e+00 0.000000e+00
      vertex -2.700000e+01 0.000000e+00 0.000000e+00
      vertex -2.700000e+01 0.000000e+00 2.400000e+00
    endloop
  endfacet
  facet normal 0.000000e+00 1.000000e+00 0.000000e+00
    outer loop
      vertex -2.500000e+01 0.000000e+00 0.000000e+00
      vertex -2.700000e+01 0.000000e+00 2.400000e+00
      vertex -2.500000e+01 0.000000e+00 2.400000e+00
    endloop
  endfacet
  facet normal 0.000000e+00 1.000000e+00 0.000000e+00
    outer loop
      vertex -6.200000e+00 0.000000e+00 2.400000e+00
      vertex -2.080000e+01 0.000000e+00 0.000000e+00
      vertex -2.080000e+01 0.000000e+00 2.400000e+00
    endloop
  endfacet
  facet normal -0.000000e+00 1.000000e+00 0.000000e+00
    outer loop
      vertex -6.200000e+00 0.000000e+00 0.000000e+00
      vertex -2.080000e+01 0.000000e+00 0.000000e+00
      vertex -6.200000e+00 0.000000e+00 2.400000e+00
    endloop
  endfacet
  facet normal 0.000000e+00 1.000000e+00 0.000000e+00
    outer loop
      vertex -2.000000e+00 0.000000e+00 0.000000e+00
      vertex -2.000000e+00 0.000000e+00 2.400000e+00
      vertex 0.000000e+00 0.000000e+00 2.400000e+00
    endloop
  endfacet
  facet normal -0.000000e+00 1.000000e+00 0.000000e+00
    outer loop
      vertex 0.000000e+00 0.000000e+00 0.000000e+00
      vertex -2.000000e+00 0.000000e+00 0.000000e+00
      vertex 0.000000e+00 0.000000e+00 2.400000e+00
    endloop
  endfacet
  facet normal 1.000000e+00 0.000000e+00 0.000000e+00
    outer loop
      vertex 0.000000e+00 -3.500000e+01 2.400000e+00
      vertex 0.000000e+00 0.000000e+00 0.000000e+00
      vertex 0.000000e+00 0.000000e+00 2.400000e+00
    endloop
  endfacet
  facet normal 1.000000e+00 0.000000e+00 0.000000e+00
    outer loop
      vertex 0.000000e+00 -3.500000e+01 0.000000e+00
      vertex 0.000000e+00 0.000000e+00 0.000000e+00
      vertex 0.000000e+00 -3.500000e+01 2.400000e+00
    endloop
  endfacet
  facet normal 0.000000e+00 0.000000e+00 1.000000e+00
    outer loop
      vertex 0.000000e+00 0.000000e+00 2.400000e+00
      vertex -2.000000e+00 0.000000e+00 2.400000e+00
      vertex -2.000000e+00 -3.500000e+01 2.400000e+00
    endloop
  endfacet
  facet normal 0.000000e+00 0.000000e+00 1.000000e+00
    outer loop
      vertex 0.000000e+00 0.000000e+00 2.400000e+00
      vertex -2.000000e+00 -3.500000e+01 2.400000e+00
      vertex 0.000000e+00 -3.500000e+01 2.400000e+00
    endloop
  endfacet
  facet normal -1.000000e+00 0.000000e+00 0.000000e+00
    outer loop
      vertex -2.000000e+00 0.000000e+00 2.400000e+00
      vertex -2.000000e+00 -3.500000e+01 0.000000e+00
      vertex -2.000000e+00 -3.500000e+01 2.400000e+00
    endloop
  endfacet
  facet normal -1.000000e+00 0.000000e+00 0.000000e+00
    outer loop
      vertex -2.000000e+00 0.000000e+00 0.000000e+00
      vertex -2.000000e+00 -3.500000e+01 0.000000e+00
      vertex -2.000000e+00 0.000000e+00 2.400000e+00
    endloop
  endfacet
  facet normal 1.000000e+00 -1.362392e-08 -1.986821e-07
    outer loop
      vertex -6.200000e+00 -3.500000e+01 2.400000e+00
      vertex -6.200000e+00 0.000000e+00 0.000000e+00
      vertex -6.200000e+00 0.000000e+00 2.400000e+00
    endloop
  endfacet
  facet normal 1.000000e+00 0.000000e+00 0.000000e+00
    outer loop
      vertex -6.200000e+00 -3.500000e+01 0.000000e+00
      vertex -6.200000e+00 0.000000e+00 0.000000e+00
      vertex -6.200000e+00 -3.500000e+01 2.400000e+00
    endloop
  endfacet
  facet normal 0.000000e+00 0.000000e+00 1.000000e+00
    outer loop
      vertex -2.080000e+01 0.000000e+00 2.400000e+00
      vertex -2.080000e+01 -3.500000e+01 2.400000e+00
      vertex -6.200000e+00 -3.500000e+01 2.400000e+00
    endloop
  endfacet
  facet normal 0.000000e+00 0.000000e+00 1.000000e+00
    outer loop
      vertex -6.200000e+00 0.000000e+00 2.400000e+00
      vertex -2.080000e+01 0.000000e+00 2.400000e+00
      vertex -6.200000e+00 -3.500000e+01 2.400000e+00
    endloop
  endfacet
  facet normal -1.000000e+00 -5.449568e-08 7.947286e-07
    outer loop
      vertex -2.080000e+01 0.000000e+00 2.400000e+00
      vertex -2.080000e+01 -3.500000e+01 0.000000e+00
      vertex -2.080000e+01 -3.500000e+01 2.400000e+00
    endloop
  endfacet
  facet normal -1.000000e+00 0.000000e+00 0.000000e+00
    outer loop
      vertex -2.080000e+01 0.000000e+00 0.000000e+00
      vertex -2.080000e+01 -3.500000e+01 0.000000e+00
      vertex -2.080000e+01 0.000000e+00 2.400000e+00
    endloop
  endfacet
  facet normal 1.000000e+00 0.000000e+00 -7.947286e-07
    outer loop
      vertex -2.500000e+01 -3.500000e+01 2.400000e+00
      vertex -2.500000e+01 0.000000e+00 0.000000e+00
      vertex -2.500000e+01 0.000000e+00 2.400000e+00
    endloop
  endfacet
  facet normal 1.000000e+00 5.449568e-08 0.000000e+00
    outer loop
      vertex -2.500000e+01 -3.500000e+01 0.000000e+00
      vertex -2.500000e+01 0.000000e+00 0.000000e+00
      vertex -2.500000e+01 -3.500000e+01 2.400000e+00
    endloop
  endfacet
  facet normal 0.000000e+00 0.000000e+00 1.000000e+00
    outer loop
      vertex -2.500000e+01 0.000000e+00 2.400000e+00
      vertex -2.700000e+01 -3.500000e+01 2.400000e+00
      vertex -2.500000e+01 -3.500000e+01 2.400000e+00
    endloop
  endfacet
  facet normal 0.000000e+00 0.000000e+00 1.000000e+00
    outer loop
      vertex -2.500000e+01 0.000000e+00 2.400000e+00
      vertex -2.700000e+01 0.000000e+00 2.400000e+00
      vertex -2.700000e+01 -3.500000e+01 2.400000e+00
    endloop
  endfacet
endsolid Object01
